{
	"asset":{
		"generator":"Khronos glTF Blender I/O v4.0.44",
		"version":"2.0"
	},
	"extensionsUsed":[
		"KHR_materials_emissive_strength"
	],
	"scene":0,
	"scenes":[
		{
			"name":"Scene",
			"nodes":[
				24
			]
		}
	],
	"nodes":[
		{
			"name":"Body",
			"rotation":[
				0.7179569602012634,
				-0.0016200558748096228,
				-0.001046813209541142,
				0.6960847973823547
			],
			"scale":[
				1,
				1,
				1.0000001192092896
			],
			"translation":[
				-0.0011940825497731566,
				0.0017675376730039716,
				0.0019350377842783928
			]
		},
		{
			"name":"FrontArm2.R.001",
			"rotation":[
				-0.00043445482151582837,
				1.1829129675788863e-07,
				0.0018791956827044487,
				0.999998152256012
			],
			"translation":[
				4.656612873077393e-10,
				0.5662919282913208,
				5.966285243630409e-10
			]
		},
		{
			"children":[
				1
			],
			"name":"FrontArm2.R",
			"rotation":[
				-0.0006530770915560424,
				1.1318152637329604e-08,
				0.00017227469652425498,
				0.9999997615814209
			],
			"translation":[
				7.566995918750763e-10,
				0.44941723346710205,
				-7.40146788302809e-09
			]
		},
		{
			"children":[
				2
			],
			"name":"FrontArm.R",
			"rotation":[
				0.011681674048304558,
				0.010188725776970387,
				-0.7084826231002808,
				0.7055580019950867
			],
			"scale":[
				0.9999999403953552,
				1,
				0.9999999403953552
			],
			"translation":[
				0.3084847629070282,
				0.0009200428612530231,
				0.13920947909355164
			]
		},
		{
			"name":"BackArm2.R.001",
			"rotation":[
				-0.00043445476330816746,
				1.183019264772156e-07,
				0.001879194169305265,
				0.999998152256012
			],
			"scale":[
				1,
				0.9999999403953552,
				1
			],
			"translation":[
				-4.656612873077393e-10,
				0.5662921071052551,
				1.507578417658806e-08
			]
		},
		{
			"children":[
				4
			],
			"name":"BackArm2.R",
			"rotation":[
				-0.0006593722500838339,
				1.6075599518217132e-08,
				0.00017394676979165524,
				0.9999998211860657
			],
			"scale":[
				1,
				0.9999999403953552,
				0.9999999403953552
			],
			"translation":[
				2.3283064365386963e-10,
				0.44870519638061523,
				6.606569513678551e-09
			]
		},
		{
			"children":[
				5
			],
			"name":"BackArm.R",
			"rotation":[
				0.011686081066727638,
				0.010184271261096,
				-0.708483874797821,
				0.7055567502975464
			],
			"scale":[
				0.9999999403953552,
				0.9999999403953552,
				0.9999998807907104
			],
			"translation":[
				0.30942976474761963,
				0.009209728799760342,
				-0.12875249981880188
			]
		},
		{
			"name":"FrontArm2.L.001",
			"rotation":[
				0.0018791937036439776,
				1.9884701885075629e-07,
				-0.0004344548797234893,
				0.999998152256012
			],
			"scale":[
				0.9999999403953552,
				0.9999998807907104,
				0.9999999403953552
			],
			"translation":[
				-3.92901711165905e-10,
				0.5662919282913208,
				0
			]
		},
		{
			"children":[
				7
			],
			"name":"FrontArm2.L",
			"rotation":[
				0.00017394691531080753,
				-5.761934485093434e-09,
				-0.0006593722500838339,
				0.9999997615814209
			],
			"translation":[
				-3.0850060284137726e-09,
				0.44870525598526,
				0
			]
		},
		{
			"children":[
				8
			],
			"name":"FrontArm.L",
			"rotation":[
				0.5061055421829224,
				-0.5092371106147766,
				0.49170252680778503,
				0.4927104413509369
			],
			"scale":[
				1,
				0.9999998211860657,
				1
			],
			"translation":[
				-0.3117908835411072,
				0.0029195863753557205,
				0.13991142809391022
			]
		},
		{
			"name":"BackArm2.L.001",
			"rotation":[
				0.0018791969632729888,
				2.0130595146383712e-07,
				-0.0004344545304775238,
				0.999998152256012
			],
			"scale":[
				0.9999999403953552,
				0.9999998807907104,
				0.9999999403953552
			],
			"translation":[
				-2.066371962428093e-09,
				0.5662921071052551,
				4.656612873077393e-10
			]
		},
		{
			"children":[
				10
			],
			"name":"BackArm2.L",
			"rotation":[
				0.00017227516218554229,
				-2.457965706526011e-07,
				-0.0006530937389470637,
				0.9999997615814209
			],
			"scale":[
				1,
				0.9999999403953552,
				1
			],
			"translation":[
				9.255018085241318e-09,
				0.44941723346710205,
				-4.656612873077393e-10
			]
		},
		{
			"children":[
				11
			],
			"name":"BackArm.L",
			"rotation":[
				0.5061092972755432,
				-0.5092329978942871,
				0.4917004108428955,
				0.49271276593208313
			],
			"scale":[
				0.9999998807907104,
				0.9999995827674866,
				0.9999999403953552
			],
			"translation":[
				-0.31084585189819336,
				0.011209271848201752,
				-0.1280505359172821
			]
		},
		{
			"name":"Bone",
			"rotation":[
				0.017235200852155685,
				-0.002861878601834178,
				-0.004415021277964115,
				0.9998376369476318
			],
			"scale":[
				1,
				0.9999999403953552,
				0.9999999403953552
			],
			"translation":[
				1.4717299938201904,
				0.005195212084800005,
				-0.12740236520767212
			]
		},
		{
			"name":"Bone.001",
			"rotation":[
				-1.4057343378226506e-07,
				0.0014578549889847636,
				4.044665331548458e-07,
				0.999998927116394
			],
			"scale":[
				1,
				0.9999999403953552,
				0.9999999403953552
			],
			"translation":[
				1.4714970588684082,
				-0.003095762338489294,
				0.1405554711818695
			]
		},
		{
			"name":"Bone.002",
			"rotation":[
				-5.898019295180745e-10,
				0.0014580937568098307,
				4.046139281399519e-07,
				0.999998927116394
			],
			"translation":[
				-1.4740910530090332,
				0.006934108212590218,
				0.13856129348278046
			]
		},
		{
			"name":"Bone.003",
			"rotation":[
				-5.898019295180745e-10,
				0.0014580937568098307,
				4.046139281399519e-07,
				0.999998927116394
			],
			"translation":[
				-1.473858118057251,
				0.015225086361169815,
				-0.12939654290676117
			]
		},
		{
			"mesh":0,
			"name":"Creature",
			"skin":0
		},
		{
			"mesh":1,
			"name":"Ears"
		},
		{
			"mesh":2,
			"name":"Eyes"
		},
		{
			"mesh":3,
			"name":"Head"
		},
		{
			"mesh":4,
			"name":"Nech"
		},
		{
			"mesh":5,
			"name":"Screen"
		},
		{
			"children":[
				18,
				19,
				20,
				21,
				22
			],
			"name":"HeadGroup"
		},
		{
			"children":[
				17,
				23,
				0,
				3,
				6,
				9,
				12,
				13,
				14,
				15,
				16
			],
			"name":"Armature"
		}
	],
	"materials":[
		{
			"doubleSided":true,
			"emissiveFactor":[
				0,
				0.04369969666004181,
				1
			],
			"extensions":{
				"KHR_materials_emissive_strength":{
					"emissiveStrength":1.6999999284744263
				}
			},
			"name":"Eyes",
			"pbrMetallicRoughness":{
				"baseColorFactor":[
					0.005640385672450066,
					0.6346305012702942,
					0.8005985021591187,
					1
				],
				"metallicFactor":0,
				"roughnessFactor":0.5
			}
		},
		{
			"doubleSided":true,
			"name":"Screen",
			"pbrMetallicRoughness":{
				"baseColorFactor":[
					0,
					0,
					0,
					1
				],
				"metallicFactor":0,
				"roughnessFactor":0.5
			}
		}
	],
	"meshes":[
		{
			"name":"Plane.009",
			"primitives":[
				{
					"attributes":{
						"COLOR_0":0,
						"POSITION":1,
						"NORMAL":2,
						"TEXCOORD_0":3,
						"JOINTS_0":4,
						"WEIGHTS_0":5
					},
					"indices":6
				}
			]
		},
		{
			"name":"Cube.004",
			"primitives":[
				{
					"attributes":{
						"POSITION":8,
						"NORMAL":9,
						"TEXCOORD_0":10
					},
					"indices":11
				}
			]
		},
		{
			"name":"Plane.002",
			"primitives":[
				{
					"attributes":{
						"POSITION":12,
						"NORMAL":13,
						"TEXCOORD_0":14
					},
					"indices":15,
					"material":0
				}
			]
		},
		{
			"name":"Cube.003",
			"primitives":[
				{
					"attributes":{
						"POSITION":16,
						"NORMAL":17,
						"TEXCOORD_0":18
					},
					"indices":19
				}
			]
		},
		{
			"name":"Cube.005",
			"primitives":[
				{
					"attributes":{
						"POSITION":20,
						"NORMAL":21,
						"TEXCOORD_0":22
					},
					"indices":23
				}
			]
		},
		{
			"name":"Plane",
			"primitives":[
				{
					"attributes":{
						"POSITION":24,
						"NORMAL":25,
						"TEXCOORD_0":26
					},
					"indices":27,
					"material":1
				}
			]
		}
	],
	"skins":[
		{
			"inverseBindMatrices":7,
			"joints":[
				0,
				3,
				2,
				1,
				6,
				5,
				4,
				9,
				8,
				7,
				12,
				11,
				10,
				13,
				14,
				15,
				16
			],
			"name":"Armature"
		}
	],
	"accessors":[
		{
			"bufferView":0,
			"componentType":5123,
			"count":5120,
			"normalized":true,
			"type":"VEC4"
		},
		{
			"bufferView":1,
			"componentType":5126,
			"count":5120,
			"max":[
				1.3159778118133545,
				0.06076905503869057,
				0.2373778373003006
			],
			"min":[
				-1.3159774541854858,
				-0.060655709356069565,
				-0.23737910389900208
			],
			"type":"VEC3"
		},
		{
			"bufferView":2,
			"componentType":5126,
			"count":5120,
			"type":"VEC3"
		},
		{
			"bufferView":3,
			"componentType":5126,
			"count":5120,
			"type":"VEC2"
		},
		{
			"bufferView":4,
			"componentType":5121,
			"count":5120,
			"type":"VEC4"
		},
		{
			"bufferView":5,
			"componentType":5126,
			"count":5120,
			"type":"VEC4"
		},
		{
			"bufferView":6,
			"componentType":5123,
			"count":7440,
			"type":"SCALAR"
		},
		{
			"bufferView":7,
			"componentType":5126,
			"count":17,
			"type":"MAT4"
		},
		{
			"bufferView":8,
			"componentType":5126,
			"count":768,
			"max":[
				0.2741212248802185,
				0.26873257756233215,
				0.09682133048772812
			],
			"min":[
				-0.2719404101371765,
				0.09777899831533432,
				-0.0794229507446289
			],
			"type":"VEC3"
		},
		{
			"bufferView":9,
			"componentType":5126,
			"count":768,
			"type":"VEC3"
		},
		{
			"bufferView":10,
			"componentType":5126,
			"count":768,
			"type":"VEC2"
		},
		{
			"bufferView":11,
			"componentType":5123,
			"count":1152,
			"type":"SCALAR"
		},
		{
			"bufferView":12,
			"componentType":5126,
			"count":932,
			"max":[
				0.09955360740423203,
				0.20785799622535706,
				0.25259071588516235
			],
			"min":[
				-0.10613848268985748,
				0.12383574992418289,
				0.2279766947031021
			],
			"type":"VEC3"
		},
		{
			"bufferView":13,
			"componentType":5126,
			"count":932,
			"type":"VEC3"
		},
		{
			"bufferView":14,
			"componentType":5126,
			"count":932,
			"type":"VEC2"
		},
		{
			"bufferView":15,
			"componentType":5123,
			"count":1440,
			"type":"SCALAR"
		},
		{
			"bufferView":16,
			"componentType":5126,
			"count":2084,
			"max":[
				0.20401304960250854,
				0.35099583864212036,
				0.24143151938915253
			],
			"min":[
				-0.21708419919013977,
				0.05589385703206062,
				-0.28761446475982666
			],
			"type":"VEC3"
		},
		{
			"bufferView":17,
			"componentType":5126,
			"count":2084,
			"type":"VEC3"
		},
		{
			"bufferView":18,
			"componentType":5126,
			"count":2084,
			"type":"VEC2"
		},
		{
			"bufferView":19,
			"componentType":5123,
			"count":3372,
			"type":"SCALAR"
		},
		{
			"bufferView":20,
			"componentType":5126,
			"count":728,
			"max":[
				0.2196599245071411,
				0.06559205800294876,
				0.22989149391651154
			],
			"min":[
				-0.23370438814163208,
				-0.0622173547744751,
				-0.22993001341819763
			],
			"type":"VEC3"
		},
		{
			"bufferView":21,
			"componentType":5126,
			"count":728,
			"type":"VEC3"
		},
		{
			"bufferView":22,
			"componentType":5126,
			"count":728,
			"type":"VEC2"
		},
		{
			"bufferView":23,
			"componentType":5123,
			"count":1296,
			"type":"SCALAR"
		},
		{
			"bufferView":24,
			"componentType":5126,
			"count":24,
			"max":[
				0.19091880321502686,
				0.23973669111728668,
				0.23382490873336792
			],
			"min":[
				-0.20757953822612762,
				0.09802199900150299,
				0.1268952637910843
			],
			"type":"VEC3"
		},
		{
			"bufferView":25,
			"componentType":5126,
			"count":24,
			"type":"VEC3"
		},
		{
			"bufferView":26,
			"componentType":5126,
			"count":24,
			"type":"VEC2"
		},
		{
			"bufferView":27,
			"componentType":5123,
			"count":36,
			"type":"SCALAR"
		}
	],
	"bufferViews":[
		{
			"buffer":0,
			"byteLength":40960,
			"byteOffset":0,
			"target":34962
		},
		{
			"buffer":0,
			"byteLength":61440,
			"byteOffset":40960,
			"target":34962
		},
		{
			"buffer":0,
			"byteLength":61440,
			"byteOffset":102400,
			"target":34962
		},
		{
			"buffer":0,
			"byteLength":40960,
			"byteOffset":163840,
			"target":34962
		},
		{
			"buffer":0,
			"byteLength":20480,
			"byteOffset":204800,
			"target":34962
		},
		{
			"buffer":0,
			"byteLength":81920,
			"byteOffset":225280,
			"target":34962
		},
		{
			"buffer":0,
			"byteLength":14880,
			"byteOffset":307200,
			"target":34963
		},
		{
			"buffer":0,
			"byteLength":1088,
			"byteOffset":322080
		},
		{
			"buffer":0,
			"byteLength":9216,
			"byteOffset":323168,
			"target":34962
		},
		{
			"buffer":0,
			"byteLength":9216,
			"byteOffset":332384,
			"target":34962
		},
		{
			"buffer":0,
			"byteLength":6144,
			"byteOffset":341600,
			"target":34962
		},
		{
			"buffer":0,
			"byteLength":2304,
			"byteOffset":347744,
			"target":34963
		},
		{
			"buffer":0,
			"byteLength":11184,
			"byteOffset":350048,
			"target":34962
		},
		{
			"buffer":0,
			"byteLength":11184,
			"byteOffset":361232,
			"target":34962
		},
		{
			"buffer":0,
			"byteLength":7456,
			"byteOffset":372416,
			"target":34962
		},
		{
			"buffer":0,
			"byteLength":2880,
			"byteOffset":379872,
			"target":34963
		},
		{
			"buffer":0,
			"byteLength":25008,
			"byteOffset":382752,
			"target":34962
		},
		{
			"buffer":0,
			"byteLength":25008,
			"byteOffset":407760,
			"target":34962
		},
		{
			"buffer":0,
			"byteLength":16672,
			"byteOffset":432768,
			"target":34962
		},
		{
			"buffer":0,
			"byteLength":6744,
			"byteOffset":449440,
			"target":34963
		},
		{
			"buffer":0,
			"byteLength":8736,
			"byteOffset":456184,
			"target":34962
		},
		{
			"buffer":0,
			"byteLength":8736,
			"byteOffset":464920,
			"target":34962
		},
		{
			"buffer":0,
			"byteLength":5824,
			"byteOffset":473656,
			"target":34962
		},
		{
			"buffer":0,
			"byteLength":2592,
			"byteOffset":479480,
			"target":34963
		},
		{
			"buffer":0,
			"byteLength":288,
			"byteOffset":482072,
			"target":34962
		},
		{
			"buffer":0,
			"byteLength":288,
			"byteOffset":482360,
			"target":34962
		},
		{
			"buffer":0,
			"byteLength":192,
			"byteOffset":482648,
			"target":34962
		},
		{
			"buffer":0,
			"byteLength":72,
			"byteOffset":482840,
			"target":34963
		}
	],
	"buffers":[
		{
			"byteLength":482912,
			"uri":"Creature.bin"
		}
	]
}
